<mxfile host="app.diagrams.net" modified="2023-03-20T09:25:41.197Z" agent="5.0 (Windows NT 10.0; WOW64) AppleWebKit/537.36 (KHTML, like Gecko) Chrome/102.0.0.0 Safari/537.36" etag="8kZzWK63LC54yehXJVAl" version="21.0.8" type="github">
  <diagram name="Page-1" id="74e2e168-ea6b-b213-b513-2b3c1d86103e">
    <mxGraphModel dx="1036" dy="535" grid="0" gridSize="10" guides="1" tooltips="1" connect="1" arrows="1" fold="1" page="1" pageScale="1" pageWidth="1100" pageHeight="850" background="none" math="0" shadow="0">
      <root>
        <mxCell id="0" />
        <mxCell id="1" parent="0" />
        <mxCell id="pBZqy-24k48PtXodU0PR-14" value="" style="edgeStyle=orthogonalEdgeStyle;rounded=0;orthogonalLoop=1;jettySize=auto;html=1;" edge="1" parent="1" source="77e6c97f196da883-8" target="77e6c97f196da883-11">
          <mxGeometry relative="1" as="geometry" />
        </mxCell>
        <mxCell id="77e6c97f196da883-8" value="&lt;font style=&quot;font-size: 9px;&quot;&gt;开始&lt;/font&gt;" style="rounded=1;whiteSpace=wrap;html=1;shadow=0;labelBackgroundColor=none;strokeWidth=2;fontFamily=Verdana;fontSize=9;align=center;" parent="1" vertex="1">
          <mxGeometry x="367" y="46" width="103" height="56" as="geometry" />
        </mxCell>
        <mxCell id="pBZqy-24k48PtXodU0PR-15" value="" style="edgeStyle=orthogonalEdgeStyle;rounded=0;orthogonalLoop=1;jettySize=auto;html=1;" edge="1" parent="1" source="77e6c97f196da883-11" target="pBZqy-24k48PtXodU0PR-12">
          <mxGeometry relative="1" as="geometry" />
        </mxCell>
        <mxCell id="77e6c97f196da883-11" value="&lt;font style=&quot;font-size: 11px;&quot;&gt;获取初始位形状态信息Q,r1,r2&lt;/font&gt;" style="rounded=1;whiteSpace=wrap;html=1;shadow=0;labelBackgroundColor=none;strokeWidth=2;fontFamily=Verdana;fontSize=8;align=center;" parent="1" vertex="1">
          <mxGeometry x="368.5" y="142" width="100" height="60" as="geometry" />
        </mxCell>
        <mxCell id="77e6c97f196da883-15" value="dt=dt/N,计算N次" style="rounded=1;whiteSpace=wrap;html=1;shadow=0;labelBackgroundColor=none;strokeWidth=2;fontFamily=Verdana;fontSize=8;align=center;" parent="1" vertex="1">
          <mxGeometry x="635" y="326" width="111" height="61" as="geometry" />
        </mxCell>
        <mxCell id="77e6c97f196da883-16" value="判断是否满足计算时长" style="rhombus;whiteSpace=wrap;html=1;rounded=0;shadow=0;labelBackgroundColor=none;strokeWidth=2;fontFamily=Verdana;fontSize=8;align=center;" parent="1" vertex="1">
          <mxGeometry x="350" y="655" width="140" height="100" as="geometry" />
        </mxCell>
        <mxCell id="77e6c97f196da883-35" style="edgeStyle=orthogonalEdgeStyle;rounded=1;html=1;labelBackgroundColor=none;startArrow=none;startFill=0;startSize=5;endArrow=classicThin;endFill=1;endSize=5;jettySize=auto;orthogonalLoop=1;strokeWidth=2;fontFamily=Verdana;fontSize=8" parent="1" source="77e6c97f196da883-16" target="77e6c97f196da883-17" edge="1">
          <mxGeometry relative="1" as="geometry" />
        </mxCell>
        <mxCell id="pBZqy-24k48PtXodU0PR-17" value="" style="edgeStyle=orthogonalEdgeStyle;rounded=0;orthogonalLoop=1;jettySize=auto;html=1;" edge="1" parent="1" source="77e6c97f196da883-20" target="77e6c97f196da883-16">
          <mxGeometry relative="1" as="geometry" />
        </mxCell>
        <mxCell id="77e6c97f196da883-20" value="判断哑铃分子是否超长" style="rhombus;whiteSpace=wrap;html=1;rounded=0;shadow=0;labelBackgroundColor=none;strokeWidth=2;fontFamily=Verdana;fontSize=8;align=center;" parent="1" vertex="1">
          <mxGeometry x="345" y="520" width="150" height="95" as="geometry" />
        </mxCell>
        <mxCell id="77e6c97f196da883-17" value="结束" style="rounded=1;whiteSpace=wrap;html=1;shadow=0;labelBackgroundColor=none;strokeWidth=2;fontFamily=Verdana;fontSize=8;align=center;" parent="1" vertex="1">
          <mxGeometry x="370" y="807" width="100" height="60" as="geometry" />
        </mxCell>
        <mxCell id="BoxLvL8MPdrxsjl6-heK-12" value="&lt;b&gt;Y&lt;/b&gt;" style="text;html=1;align=center;verticalAlign=middle;resizable=0;points=[];autosize=1;strokeColor=none;fillColor=none;" parent="1" vertex="1">
          <mxGeometry x="771" y="314" width="26" height="26" as="geometry" />
        </mxCell>
        <mxCell id="BoxLvL8MPdrxsjl6-heK-13" value="&lt;b&gt;N&lt;/b&gt;" style="text;html=1;align=center;verticalAlign=middle;resizable=0;points=[];autosize=1;strokeColor=none;fillColor=none;" parent="1" vertex="1">
          <mxGeometry x="414" y="622" width="27" height="26" as="geometry" />
        </mxCell>
        <mxCell id="BoxLvL8MPdrxsjl6-heK-14" value="&lt;b&gt;Y&lt;/b&gt;" style="text;html=1;align=center;verticalAlign=middle;resizable=0;points=[];autosize=1;strokeColor=none;fillColor=none;" parent="1" vertex="1">
          <mxGeometry x="414" y="768" width="26" height="26" as="geometry" />
        </mxCell>
        <mxCell id="pBZqy-24k48PtXodU0PR-1" value="&lt;font face=&quot;Verdana&quot;&gt;是否为前沿区哑铃分子&lt;/font&gt;" style="rhombus;whiteSpace=wrap;html=1;strokeWidth=2;" vertex="1" parent="1">
          <mxGeometry x="346.25" y="343" width="144.5" height="89" as="geometry" />
        </mxCell>
        <mxCell id="pBZqy-24k48PtXodU0PR-2" value="按照前沿流场进行迭代" style="rounded=1;whiteSpace=wrap;html=1;strokeWidth=2;" vertex="1" parent="1">
          <mxGeometry x="207" y="435" width="120" height="60" as="geometry" />
        </mxCell>
        <mxCell id="pBZqy-24k48PtXodU0PR-4" value="按照原始流场进行迭代" style="rounded=1;whiteSpace=wrap;html=1;strokeWidth=2;" vertex="1" parent="1">
          <mxGeometry x="508" y="435" width="120" height="60" as="geometry" />
        </mxCell>
        <mxCell id="pBZqy-24k48PtXodU0PR-8" value="" style="edgeStyle=segmentEdgeStyle;endArrow=classic;html=1;curved=0;rounded=0;endSize=8;startSize=8;entryX=0;entryY=0.5;entryDx=0;entryDy=0;exitX=0.5;exitY=1;exitDx=0;exitDy=0;strokeWidth=2;" edge="1" parent="1" source="pBZqy-24k48PtXodU0PR-2" target="77e6c97f196da883-20">
          <mxGeometry width="50" height="50" relative="1" as="geometry">
            <mxPoint x="503" y="563" as="sourcePoint" />
            <mxPoint x="553" y="513" as="targetPoint" />
            <Array as="points">
              <mxPoint x="268" y="568" />
            </Array>
          </mxGeometry>
        </mxCell>
        <mxCell id="pBZqy-24k48PtXodU0PR-9" value="" style="edgeStyle=segmentEdgeStyle;endArrow=classic;html=1;curved=0;rounded=0;endSize=8;startSize=8;exitX=1;exitY=0.5;exitDx=0;exitDy=0;strokeWidth=2;" edge="1" parent="1" source="pBZqy-24k48PtXodU0PR-1" target="pBZqy-24k48PtXodU0PR-4">
          <mxGeometry width="50" height="50" relative="1" as="geometry">
            <mxPoint x="503" y="563" as="sourcePoint" />
            <mxPoint x="553" y="513" as="targetPoint" />
          </mxGeometry>
        </mxCell>
        <mxCell id="pBZqy-24k48PtXodU0PR-11" value="" style="edgeStyle=segmentEdgeStyle;endArrow=classic;html=1;curved=0;rounded=0;endSize=8;startSize=8;entryX=0.5;entryY=0;entryDx=0;entryDy=0;exitX=0;exitY=0.5;exitDx=0;exitDy=0;strokeWidth=2;" edge="1" parent="1" source="pBZqy-24k48PtXodU0PR-1" target="pBZqy-24k48PtXodU0PR-2">
          <mxGeometry width="50" height="50" relative="1" as="geometry">
            <mxPoint x="349" y="379" as="sourcePoint" />
            <mxPoint x="266" y="375" as="targetPoint" />
          </mxGeometry>
        </mxCell>
        <mxCell id="pBZqy-24k48PtXodU0PR-16" value="" style="edgeStyle=orthogonalEdgeStyle;rounded=0;orthogonalLoop=1;jettySize=auto;html=1;" edge="1" parent="1" source="pBZqy-24k48PtXodU0PR-12" target="pBZqy-24k48PtXodU0PR-1">
          <mxGeometry relative="1" as="geometry" />
        </mxCell>
        <mxCell id="pBZqy-24k48PtXodU0PR-12" value="&lt;font face=&quot;Verdana&quot;&gt;计算Q(t+dt),r1(t+dt),r2(t+dt)&lt;/font&gt;" style="rounded=1;whiteSpace=wrap;html=1;strokeWidth=2;" vertex="1" parent="1">
          <mxGeometry x="334.5" y="244" width="168" height="60" as="geometry" />
        </mxCell>
        <mxCell id="pBZqy-24k48PtXodU0PR-18" value="" style="endArrow=classic;html=1;rounded=0;exitX=0;exitY=0.5;exitDx=0;exitDy=0;entryX=0.5;entryY=0;entryDx=0;entryDy=0;strokeWidth=2;" edge="1" parent="1" source="pBZqy-24k48PtXodU0PR-4" target="77e6c97f196da883-20">
          <mxGeometry width="50" height="50" relative="1" as="geometry">
            <mxPoint x="503" y="614" as="sourcePoint" />
            <mxPoint x="553" y="564" as="targetPoint" />
            <Array as="points">
              <mxPoint x="420" y="465" />
            </Array>
          </mxGeometry>
        </mxCell>
        <mxCell id="pBZqy-24k48PtXodU0PR-19" value="&lt;b&gt;Y&lt;/b&gt;" style="text;html=1;align=center;verticalAlign=middle;resizable=0;points=[];autosize=1;strokeColor=none;fillColor=none;" vertex="1" parent="1">
          <mxGeometry x="303" y="361" width="26" height="26" as="geometry" />
        </mxCell>
        <mxCell id="pBZqy-24k48PtXodU0PR-20" value="&lt;b&gt;N&lt;/b&gt;" style="text;html=1;align=center;verticalAlign=middle;resizable=0;points=[];autosize=1;strokeColor=none;fillColor=none;" vertex="1" parent="1">
          <mxGeometry x="508" y="361" width="27" height="26" as="geometry" />
        </mxCell>
        <mxCell id="pBZqy-24k48PtXodU0PR-22" value="" style="edgeStyle=segmentEdgeStyle;endArrow=classic;html=1;curved=0;rounded=0;endSize=8;startSize=8;strokeWidth=2;" edge="1" parent="1">
          <mxGeometry width="50" height="50" relative="1" as="geometry">
            <mxPoint x="630" y="467" as="sourcePoint" />
            <mxPoint x="690" y="386" as="targetPoint" />
          </mxGeometry>
        </mxCell>
        <mxCell id="pBZqy-24k48PtXodU0PR-24" value="" style="edgeStyle=segmentEdgeStyle;endArrow=classic;html=1;curved=0;rounded=0;endSize=8;startSize=8;exitX=0.5;exitY=0;exitDx=0;exitDy=0;entryX=1;entryY=0.5;entryDx=0;entryDy=0;strokeWidth=2;" edge="1" parent="1" source="77e6c97f196da883-15" target="pBZqy-24k48PtXodU0PR-12">
          <mxGeometry width="50" height="50" relative="1" as="geometry">
            <mxPoint x="503" y="443" as="sourcePoint" />
            <mxPoint x="553" y="393" as="targetPoint" />
            <Array as="points">
              <mxPoint x="691" y="274" />
            </Array>
          </mxGeometry>
        </mxCell>
        <mxCell id="pBZqy-24k48PtXodU0PR-25" value="" style="edgeStyle=elbowEdgeStyle;elbow=horizontal;endArrow=classic;html=1;curved=0;rounded=0;endSize=8;startSize=8;strokeWidth=2;" edge="1" parent="1" target="pBZqy-24k48PtXodU0PR-12">
          <mxGeometry width="50" height="50" relative="1" as="geometry">
            <mxPoint x="349" y="703" as="sourcePoint" />
            <mxPoint x="257" y="637" as="targetPoint" />
            <Array as="points">
              <mxPoint x="164" y="485" />
            </Array>
          </mxGeometry>
        </mxCell>
      </root>
    </mxGraphModel>
  </diagram>
</mxfile>
